<svg width="590" height="300" viewBox="0 0 590 300" fill="none" xmlns="http://www.w3.org/2000/svg">
<g clip-path="url(#clip0_1148_7115)">
<path d="M35.28 296.902H0V3.27979H35.28V296.902Z" fill="#141414"/>
<path d="M108.3 296.902L88.2 90.3845H87.3801L87.79 147.225V296.902H55.79V3.27979H103.79L123.07 215.519H123.89L143.17 3.27979H191.17V296.902H159.17V147.225L159.58 90.3845H158.76L138.66 296.902H108.3Z" fill="#141414"/>
<path d="M281.42 3.27979L316.7 296.902H282.24L274.86 224.112H242.04L234.25 296.902H201.43L236.71 3.27979H281.42ZM244.91 193.439H271.58L262.56 105.517L258.87 65.4433H258.05L254.36 105.517L244.91 193.439Z" fill="#141414"/>
<path d="M389.72 112.873V51.5272C389.72 39.6647 384.8 31.8992 374.95 31.8992C365.1 31.8992 360.18 39.6647 360.18 51.5272V248.644C360.18 260.507 365.1 268.272 374.95 268.272C384.8 268.272 389.72 260.507 389.72 248.644V174.628H373.31V141.503H424.18V296.902H393V283.404C388.9 293.223 380.28 300.172 365.1 300.172C342.54 300.172 324.9 282.587 324.9 254.366V45.8053C324.9 17.5844 346.23 0 374.95 0C404.08 0 424.18 17.5844 424.18 45.8053V112.873H389.72Z" fill="#141414"/>
<path d="M545.61 45.8053V254.366C545.61 282.587 524.28 300.172 495.15 300.172C466.43 300.172 444.69 282.587 444.69 254.366V45.8053C444.69 17.5844 466.43 0 495.15 0C524.28 0 545.61 17.5844 545.61 45.8053ZM479.97 51.5272V248.644C479.97 260.507 485.3 268.272 495.15 268.272C505 268.272 510.33 260.507 510.33 248.644V51.5272C510.33 39.6647 505 31.8992 495.15 31.8992C485.3 31.8992 479.97 39.6746 479.97 51.5272Z" fill="#141414"/>
<path d="M555.86 253.958H590.32V296.902H555.86V253.958Z" fill="#141414"/>
</g>
<defs>
<clipPath id="clip0_1148_7115">
<rect width="590" height="300" fill="white"/>
</clipPath>
</defs>
</svg>
